<svg width="198" height="61" viewBox="0 0 198 61" fill="none" xmlns="http://www.w3.org/2000/svg">
<path d="M0 29.4143C0 6.32712 6.34253 0 29.5661 0C52.7896 0 58.9695 6.24476 58.9695 29.332C58.9695 54.0639 52.7119 60.8004 29.6511 60.8004C6.59021 60.8004 0 54.0615 0 29.4143ZM41.6732 30.0708C41.6732 24.1555 39.1212 22.5131 29.5661 22.5131C20.011 22.5131 17.2963 24.1555 17.2963 30.0708C17.2963 35.9861 19.9309 37.4661 29.5661 37.4661C39.2013 37.4661 41.6732 35.9037 41.6732 30.0708Z" fill="#FFF3E2"/>
<path d="M62.5151 59.1557V1.64476H91.9185C110.944 1.64476 115.637 7.06835 115.637 18.9814C115.637 26.2919 113.578 31.0591 109.873 34.2614C112.015 35.9062 113.909 38.6967 114.319 43.7933C114.812 48.7227 115.06 53.8169 116.295 59.1557H98.669C97.5981 56.1156 97.3529 52.1721 97.1028 49.6238C96.8551 45.2709 95.1262 44.0379 89.8569 44.0379H80.2193V59.1557H62.5127H62.5151ZM97.9308 26.2072C97.9308 23.1042 96.0368 22.1813 89.5316 22.1813H80.2242V30.2331H89.449C95.7065 30.2331 97.9308 28.5544 97.9308 26.2072Z" fill="#FFF3E2"/>
<path d="M118.626 59.1557L128.261 1.64476H146.793L137.158 59.1557H118.626Z" fill="#FFF3E2"/>
<path d="M188.365 1.64476H151.468L141.833 59.1557H159.457L161.521 46.3076H178.312L180.376 59.1557H198L188.365 1.64476ZM163.08 30.2355L164.561 22.1837H175.27L176.751 30.2355H163.08Z" fill="#FFF3E2"/>
</svg>
